<svg width="25" height="27" viewBox="0 0 25 27" fill="none" xmlns="http://www.w3.org/2000/svg">
<path d="M14.22 13.35C17.09 12.55 19.2 9.92 19.2 6.8C19.2 3.05 16.15 0 12.4 0C8.65 0 5.6 3.05 5.6 6.8C5.6 9.92 7.71 12.55 10.58 13.35C4.61 14.21 0 19.23 0 25.3C0 25.8 0.4 26.2 0.9 26.2C1.4 26.2 1.8 25.8 1.8 25.3C1.8 19.62 6.56 15 12.4 15C18.24 15 23 19.62 23 25.3C23 25.8 23.4 26.2 23.9 26.2C24.4 26.2 24.8 25.8 24.8 25.3C24.8 19.23 20.19 14.21 14.22 13.35ZM7.4 6.8C7.4 4.04 9.64 1.8 12.4 1.8C15.16 1.8 17.4 4.04 17.4 6.8C17.4 9.56 15.16 11.8 12.4 11.8C9.64 11.8 7.4 9.56 7.4 6.8Z" fill="black"/>
</svg>
